HIERARCHY
ROOT Hips
{
	OFFSET 0.000000 103.266502 0.000000
	CHANNELS 6 Xposition Yposition Zposition Xrotation Yrotation Zrotation 
	JOINT Spine
	{
		OFFSET -0.002400 12.777504 0.315300
		CHANNELS 3 Xrotation Yrotation Zrotation
		JOINT Spine1
		{
			OFFSET -0.002067 5.816869 0.032633
			CHANNELS 3 Xrotation Yrotation Zrotation
			JOINT Spine1_split
			{
				OFFSET -0.002067 5.816869 0.032633
				CHANNELS 3 Xrotation Yrotation Zrotation
				JOINT Spine2
				{
					OFFSET -0.002067 5.816869 0.032633
					CHANNELS 3 Xrotation Yrotation Zrotation
					JOINT Neck
					{
						OFFSET -0.003700 21.199493 -0.826900
						CHANNELS 3 Xrotation Yrotation Zrotation
						JOINT Head
						{
							OFFSET 0.000000 20.442200 4.834800
							CHANNELS 3 Xrotation Yrotation Zrotation
							JOINT HeadTop_End
							{
								OFFSET 0.000000 34.668396 4.968400
								CHANNELS 3 Xrotation Yrotation Zrotation
								End Site
								{
									OFFSET 0.000000 0.000000 0.000000
								}
							}
						}
					}
					JOINT LeftShoulder
					{
						OFFSET 3.288150 8.794197 -1.372250
						CHANNELS 3 Xrotation Yrotation Zrotation
						JOINT LeftShoulder_split
						{
							OFFSET 3.288150 8.794197 -1.372250
							CHANNELS 3 Xrotation Yrotation Zrotation
							JOINT LeftArm
							{
								OFFSET 11.953299 -2.279007 -0.146200
								CHANNELS 3 Xrotation Yrotation Zrotation
								JOINT LeftForeArm
								{
									OFFSET 18.448900 0.000000 0.000000
									CHANNELS 3 Xrotation Yrotation Zrotation
									JOINT LeftHand
									{
										OFFSET 29.527798 0.000000 0.000000
										CHANNELS 3 Xrotation Yrotation Zrotation
										JOINT LeftHandThumb1
										{
											OFFSET 10.739754 -2.369614 9.225399
											CHANNELS 3 Xrotation Yrotation Zrotation
											JOINT LeftHandThumb2
											{
												OFFSET 4.926170 -2.844131 2.844125
												CHANNELS 3 Xrotation Yrotation Zrotation
												JOINT LeftHandThumb3
												{
													OFFSET 4.614891 -2.664413 2.664409
													CHANNELS 3 Xrotation Yrotation Zrotation
													JOINT LeftHandThumb4
													{
														OFFSET 4.432465 -2.559082 2.559083
														CHANNELS 3 Xrotation Yrotation Zrotation
														End Site
														{
															OFFSET 0.000000 0.000000 0.000000
														}
													}
												}
											}
										}
										JOINT LeftHandIndex1
										{
											OFFSET 26.467674 0.187653 6.405298
											CHANNELS 3 Xrotation Yrotation Zrotation
											JOINT LeftHandIndex2
											{
												OFFSET 8.792900 0.000000 0.000000
												CHANNELS 3 Xrotation Yrotation Zrotation
												JOINT LeftHandIndex3
												{
													OFFSET 10.075203 0.000000 0.000000
													CHANNELS 3 Xrotation Yrotation Zrotation
													End Site
													{
														OFFSET 0.000000 0.000000 0.000000
													}
												}
											}
										}
										JOINT LeftHandMiddle1
										{
											OFFSET 25.764404 0.000000 0.000000
											CHANNELS 3 Xrotation Yrotation Zrotation
											JOINT LeftHandMiddle2
											{
												OFFSET 9.393974 0.000000 0.000000
												CHANNELS 3 Xrotation Yrotation Zrotation
												JOINT LeftHandMiddle3
												{
													OFFSET 10.771950 0.000000 0.000000
													CHANNELS 3 Xrotation Yrotation Zrotation
													End Site
													{
														OFFSET 0.000000 0.000000 0.000000
													}
												}
											}
										}
										JOINT LeftHandRing1
										{
											OFFSET 24.660927 0.144547 -6.225808
											CHANNELS 3 Xrotation Yrotation Zrotation
											JOINT LeftHandRing2
											{
												OFFSET 9.393799 0.000000 0.000000
												CHANNELS 3 Xrotation Yrotation Zrotation
												JOINT LeftHandRing3
												{
													OFFSET 9.928497 0.000000 0.000000
													CHANNELS 3 Xrotation Yrotation Zrotation
													End Site
													{
														OFFSET 0.000000 0.000000 0.000000
													}
												}
											}
										}
										JOINT LeftHandPinky1
										{
											OFFSET 23.655350 0.125290 -12.815412
											CHANNELS 3 Xrotation Yrotation Zrotation
											JOINT LeftHandPinky2
											{
												OFFSET 8.425102 0.000000 0.000000
												CHANNELS 3 Xrotation Yrotation Zrotation
												JOINT LeftHandPinky3
												{
													OFFSET 8.147003 0.000000 0.000000
													CHANNELS 3 Xrotation Yrotation Zrotation
													End Site
													{
														OFFSET 0.000000 0.000000 0.000000
													}
												}
											}
										}
									}
								}
							}
						}
					}
					JOINT RightShoulder
					{
						OFFSET -3.249400 8.794197 -1.372250
						CHANNELS 3 Xrotation Yrotation Zrotation
						JOINT RightShoulder_split
						{
							OFFSET -3.249400 8.794197 -1.372250
							CHANNELS 3 Xrotation Yrotation Zrotation
							JOINT RightArm
							{
								OFFSET -11.953299 -2.279007 -0.146200
								CHANNELS 3 Xrotation Yrotation Zrotation
								JOINT RightForeArm
								{
									OFFSET -18.448900 0.000000 0.000000
									CHANNELS 3 Xrotation Yrotation Zrotation
									JOINT RightHand
									{
										OFFSET -29.527802 0.000000 0.000000
										CHANNELS 3 Xrotation Yrotation Zrotation
										JOINT RightHandThumb1
										{
											OFFSET -10.739754 -2.369614 9.225399
											CHANNELS 3 Xrotation Yrotation Zrotation
											JOINT RightHandThumb2
											{
												OFFSET -4.926170 -2.844131 2.844125
												CHANNELS 3 Xrotation Yrotation Zrotation
												JOINT RightHandThumb3
												{
													OFFSET -4.614891 -2.664413 2.664409
													CHANNELS 3 Xrotation Yrotation Zrotation
													JOINT RightHandThumb4
													{
														OFFSET -4.432465 -2.559082 2.559083
														CHANNELS 3 Xrotation Yrotation Zrotation
														End Site
														{
															OFFSET 0.000000 0.000000 0.000000
														}
													}
												}
											}
										}
										JOINT RightHandIndex1
										{
											OFFSET -26.467674 0.187653 6.405298
											CHANNELS 3 Xrotation Yrotation Zrotation
											JOINT RightHandIndex2
											{
												OFFSET -8.792900 0.000000 0.000000
												CHANNELS 3 Xrotation Yrotation Zrotation
												JOINT RightHandIndex3
												{
													OFFSET -10.075203 0.000000 0.000000
													CHANNELS 3 Xrotation Yrotation Zrotation
													End Site
													{
														OFFSET 0.000000 0.000000 0.000000
													}
												}
											}
										}
										JOINT RightHandMiddle1
										{
											OFFSET -25.764404 0.000000 0.000000
											CHANNELS 3 Xrotation Yrotation Zrotation
											JOINT RightHandMiddle2
											{
												OFFSET -9.393974 0.000000 0.000000
												CHANNELS 3 Xrotation Yrotation Zrotation
												JOINT RightHandMiddle3
												{
													OFFSET -10.771950 0.000000 0.000000
													CHANNELS 3 Xrotation Yrotation Zrotation
													End Site
													{
														OFFSET 0.000000 0.000000 0.000000
													}
												}
											}
										}
										JOINT RightHandRing1
										{
											OFFSET -24.660927 0.144547 -6.225808
											CHANNELS 3 Xrotation Yrotation Zrotation
											JOINT RightHandRing2
											{
												OFFSET -9.393799 0.000000 0.000000
												CHANNELS 3 Xrotation Yrotation Zrotation
												JOINT RightHandRing3
												{
													OFFSET -9.928497 0.000000 0.000000
													CHANNELS 3 Xrotation Yrotation Zrotation
													End Site
													{
														OFFSET 0.000000 0.000000 0.000000
													}
												}
											}
										}
										JOINT RightHandPinky1
										{
											OFFSET -23.655350 0.125290 -12.815412
											CHANNELS 3 Xrotation Yrotation Zrotation
											JOINT RightHandPinky2
											{
												OFFSET -8.425102 0.000000 0.000000
												CHANNELS 3 Xrotation Yrotation Zrotation
												JOINT RightHandPinky3
												{
													OFFSET -8.147003 0.000000 0.000000
													CHANNELS 3 Xrotation Yrotation Zrotation
													End Site
													{
														OFFSET 0.000000 0.000000 0.000000
													}
												}
											}
										}
									}
								}
							}
						}
					}
				}
			}
		}
	}
	JOINT LeftUpLeg
	{
		OFFSET 11.394100 -6.187798 -0.413800
		CHANNELS 3 Xrotation Yrotation Zrotation
		JOINT LeftLeg
		{
			OFFSET 0.430247 -32.302673 3.732800
			CHANNELS 3 Xrotation Yrotation Zrotation
			JOINT LeftFoot
			{
				OFFSET -0.430247 -48.264931 -6.423300
				CHANNELS 3 Xrotation Yrotation Zrotation
				JOINT LeftToeBase
				{
					OFFSET 4.230900 -16.068199 23.438400
					CHANNELS 3 Xrotation Yrotation Zrotation
					JOINT LeftToe_End
					{
						OFFSET 4.510700 0.695400 19.974600
						CHANNELS 3 Xrotation Yrotation Zrotation
						End Site
						{
							OFFSET 0.000000 0.000000 0.000000
						}
					}
				}
			}
		}
	}
	JOINT RightUpLeg
	{
		OFFSET -11.333700 -6.187798 -0.413800
		CHANNELS 3 Xrotation Yrotation Zrotation
		JOINT RightLeg
		{
			OFFSET -0.430392 -32.302628 3.733000
			CHANNELS 3 Xrotation Yrotation Zrotation
			JOINT RightFoot
			{
				OFFSET 0.430392 -48.264973 -6.423500
				CHANNELS 3 Xrotation Yrotation Zrotation
				JOINT RightToeBase
				{
					OFFSET -4.230900 -16.068199 23.438400
					CHANNELS 3 Xrotation Yrotation Zrotation
					JOINT RightToe_End
					{
						OFFSET -4.510700 0.695400 19.974600
						CHANNELS 3 Xrotation Yrotation Zrotation
						End Site
						{
							OFFSET 0.000000 0.000000 0.000000
						}
					}
				}
			}
		}
	}
}
MOTION
Frames: 4
Frame Time: 0.016667
7.760172 64.387238 118.516823 26.566885 -56.064313 32.892162 36.075915 -1.664441 -12.467610 -1.957383 5.375156 -0.991200 0.000000 0.000000 0.000000 2.116126 5.078861 -0.821986 -12.375875 22.130624 -4.641759 -6.246891 18.672303 -15.900096 0.000001 0.000000 -0.000000 5.941496 -18.519088 -1.957342 0.000000 0.000000 0.000000 -27.184727 20.945588 -31.616351 -81.078348 -81.172584 -70.319953 19.572877 -8.968054 11.330310 -2.637044 -7.745155 8.357717 4.850451 25.883357 0.310222 5.029089 28.059115 14.418581 0.000001 -0.000001 -0.000000 13.403495 -1.931340 -0.362583 -0.144251 0.314235 -46.537299 0.000000 0.000000 0.000000 8.600800 -0.764868 -14.454869 0.337752 0.740998 -48.772912 -0.000001 -0.000002 -0.000000 6.268064 2.785886 -30.963092 0.134949 0.420927 -52.428143 -0.000001 -0.000000 0.000000 -5.507707 7.394432 -31.738789 0.325630 0.344470 -72.129257 -0.000000 -0.000001 -0.000001 0.012703 27.801541 18.707811 0.000000 0.000000 0.000000 -54.993900 -1.387948 14.818758 -31.712859 58.823030 27.683998 29.626704 11.680898 -21.865403 4.362889 -2.376076 -10.417854 6.382005 -22.873385 7.534681 4.855453 -25.932787 -12.746845 0.000002 0.000000 0.000000 12.580759 5.223923 8.328365 -0.320480 -0.269461 55.178530 0.000001 0.000000 0.000000 6.735584 -0.416801 21.668213 0.630577 -0.710903 59.162730 0.000001 -0.000001 -0.000001 3.077470 -6.824891 32.208700 0.532222 -0.321423 64.382190 0.000003 0.000002 -0.000001 -7.813622 -10.789247 40.442971 0.564474 -0.208624 85.786937 0.000001 -0.000001 0.000002 -67.083789 -49.626532 36.411527 84.065558 3.693810 -41.658188 0.211584 -4.343886 -26.426620 -0.535413 1.617744 0.837646 0.000000 0.000001 -0.000000 -100.727402 29.102842 -10.831571 100.921393 4.681742 0.372693 -11.647515 -3.544209 18.492751 -0.384460 -1.379013 -0.725551 -0.000000 0.000000 -0.000000 
8.086451 64.578415 119.516602 28.251788 -56.514573 34.130008 35.757604 -2.023048 -13.941334 -2.211917 5.602700 -0.808063 0.000000 0.000000 0.000000 1.905242 5.369609 -0.299745 -12.094921 22.484175 -4.602859 -6.896210 18.777344 -15.089621 0.000003 0.000000 -0.000000 6.664342 -18.263919 -2.232500 0.000000 0.000000 0.000000 -27.495669 17.707786 -32.135118 -65.949260 -80.866598 -55.485226 19.983566 -7.423035 10.194810 -2.565567 -7.754360 8.363831 4.988649 26.393909 0.484759 5.024890 28.382269 14.577727 0.000000 0.000002 -0.000000 13.409941 -1.900497 -2.024955 -0.142135 0.315768 -49.012297 0.000003 -0.000001 -0.000003 8.587732 -0.735829 -16.027768 0.347294 0.750554 -51.229397 -0.000002 0.000000 -0.000001 6.254694 2.818119 -32.426036 0.146158 0.429326 -54.763565 0.000002 0.000001 0.000000 -5.551659 7.431830 -32.962411 0.336802 0.347409 -74.252496 0.000001 0.000000 -0.000002 0.392888 28.446679 18.972637 0.000000 0.000000 0.000000 -54.816899 -0.739643 15.725245 -32.159522 59.955701 28.371983 30.216545 9.118565 -21.036114 4.934232 -2.758362 -10.624079 6.709281 -23.370553 7.689440 5.057496 -28.342862 -13.846359 0.000000 0.000000 -0.000000 12.835081 4.880019 10.435485 -0.342464 -0.295537 58.867058 -0.000000 -0.000003 -0.000000 6.540488 -0.366040 24.090057 0.670364 -0.689407 62.625731 0.000000 0.000000 -0.000000 2.533739 -6.923156 34.344387 0.559766 -0.307382 67.256388 0.000001 0.000001 -0.000001 -8.870816 -11.299470 42.195795 0.584051 -0.186652 88.957941 -0.000002 -0.000003 0.000003 -67.073243 -49.651958 37.442677 85.083038 3.239517 -42.501942 -0.464268 -4.436336 -25.613976 -0.515985 1.600618 0.840197 -0.000000 -0.000001 -0.000000 -100.436791 29.440072 -11.065841 99.755753 4.776665 0.375763 -11.465890 -3.111901 19.347356 -0.381459 -1.361532 -0.730233 -0.000000 -0.000000 -0.000000 
8.248852 64.913048 120.452965 29.287373 -56.751967 35.098662 35.087860 -2.357570 -15.444388 -2.135788 5.671948 -0.623129 0.000000 0.000000 0.000000 1.911755 5.457658 0.250400 -12.116935 22.696517 -4.358122 -7.303198 18.909090 -14.670553 0.000001 0.000000 0.000001 7.124636 -18.651623 -2.187856 0.000000 0.000000 0.000000 -27.932339 15.768882 -32.151951 -52.503821 -79.963647 -42.362814 19.874052 -6.198294 8.772592 -2.494168 -7.763619 8.369858 5.113606 26.867041 0.645997 5.019992 28.690742 14.730205 0.000000 0.000000 0.000000 13.421738 -1.871658 -3.652797 -0.140172 0.317265 -51.493913 -0.000002 0.000000 -0.000001 8.575920 -0.708627 -17.530010 0.357451 0.759461 -53.634286 -0.000001 -0.000001 0.000000 6.241558 2.849659 -33.783004 0.157178 0.436979 -56.993349 0.000002 -0.000001 -0.000002 -5.594997 7.468750 -34.051153 0.347435 0.349648 -76.219768 0.000002 -0.000001 -0.000003 0.481418 28.460032 19.320846 0.000000 0.000000 0.000000 -54.296244 -0.269322 17.138948 -33.555838 61.774731 30.127217 31.259549 6.241253 -19.766164 5.449432 -3.079953 -10.807715 7.007127 -23.827940 7.829296 5.207849 -30.639225 -14.907381 -0.000001 -0.000000 -0.000001 13.115585 4.577878 12.470361 -0.362182 -0.324229 62.492713 -0.000002 -0.000001 0.000001 6.340836 -0.331178 26.374427 0.707226 -0.664505 65.968870 0.000001 -0.000002 -0.000000 2.011730 -7.073382 36.304771 0.584412 -0.291947 69.957523 -0.000000 -0.000001 -0.000000 -9.826588 -11.857203 43.720003 0.600193 -0.164845 91.846401 -0.000005 0.000002 0.000001 -66.992053 -49.604389 37.613278 85.854467 3.152400 -43.292529 -1.184043 -4.412884 -24.985288 -0.499318 1.583572 0.840266 -0.000000 0.000000 -0.000000 -99.615256 29.670028 -11.709821 98.642856 4.759060 0.114923 -11.532931 -2.655163 20.074536 -0.378291 -1.344230 -0.734730 -0.000000 0.000001 -0.000000 
8.450420 65.327103 121.330925 29.737523 -56.591642 35.305784 34.197425 -2.547029 -16.020518 -1.873232 5.586124 -0.555368 0.000000 0.000000 0.000000 2.077622 5.368868 0.484108 -12.370054 22.770476 -4.044474 -7.971468 19.199327 -14.250019 0.000001 -0.000000 -0.000000 6.965537 -19.294373 -2.102313 0.000000 0.000000 0.000000 -28.134867 15.072542 -32.000529 -44.720899 -79.216923 -34.966006 19.735948 -4.859224 6.786334 -2.423051 -7.772814 8.375884 5.223502 27.295331 0.791262 5.014509 28.980226 14.873850 -0.000000 0.000002 -0.000000 13.438334 -1.845275 -5.224450 -0.138559 0.318783 -53.948871 -0.000002 0.000000 0.000000 8.565229 -0.683847 -18.940736 0.367951 0.767625 -55.955423 -0.000001 -0.000001 0.000001 6.228798 2.879349 -35.013530 0.167725 0.443787 -59.086375 0.000001 0.000000 0.000001 -5.635499 7.502929 -34.986186 0.357199 0.351376 -78.001259 0.000002 -0.000000 -0.000000 0.326739 28.032102 19.689721 0.000000 0.000000 0.000000 -54.046064 0.106964 18.102723 -34.543135 63.125599 31.386406 32.050502 4.260137 -17.576662 5.901722 -3.333590 -10.969728 7.271093 -24.239517 7.950927 5.309792 -32.795222 -15.919964 -0.000000 -0.000000 0.000000 13.414729 4.320668 14.409763 -0.379319 -0.354844 66.014898 -0.000002 0.000000 -0.000000 6.140120 -0.310640 28.493901 0.740363 -0.636879 69.154415 -0.000001 0.000000 0.000001 1.519325 -7.265434 38.063022 0.606011 -0.275889 72.451874 -0.000001 -0.000000 -0.000001 -10.670384 -12.435071 44.989585 0.613044 -0.144027 94.411601 0.000001 0.000001 0.000000 -67.661001 -49.615628 36.869744 86.348030 3.210973 -43.669081 -1.682943 -4.338996 -24.303065 -0.485959 1.566509 0.839998 0.000000 0.000001 -0.000000 -98.301175 29.502264 -13.040568 97.434520 3.969598 -0.273261 -11.661341 -1.479953 20.921925 -0.375748 -1.327059 -0.740033 -0.000000 -0.000001 -0.000000 
